<?xml version="1.0" encoding="utf-8"?>
<!-- Generator: Adobe Illustrator 21.0.2, SVG Export Plug-In . SVG Version: 6.00 Build 0)  -->
<svg version="1.1" id="Layer_1" xmlns="http://www.w3.org/2000/svg" xmlns:xlink="http://www.w3.org/1999/xlink" x="0px" y="0px"
	 viewBox="0 0 390.2 391.6" style="enable-background:new 0 0 390.2 391.6;" xml:space="preserve">
<style type="text/css">
	.st0{fill:url(#SVGID_1_);}
	.st1{fill:#FFFFFF;}
</style>
<g>
	<linearGradient id="SVGID_1_" gradientUnits="userSpaceOnUse" x1="263.8212" y1="85.1655" x2="453.4915" y2="341.9499">
		<stop  offset="0" style="stop-color:#F0C372"/>
		<stop  offset="1" style="stop-color:#BBA45E"/>
	</linearGradient>
	<path class="st0" d="M379.1,12.8c0-13.9-11.3-0.5-25.2-0.5H183.4l0,0l0,0v88.4h16.3l1.8-3.1c0.6-1,1.2-2,1.9-2.9
		c4.7-6.7,11.2-11,18.6-12.4c1.8-0.3,3.7-0.5,5.6-0.5c17.4,0,31.6,14.2,31.6,31.6c0,8.7-3.5,16.6-9.3,22.3s-13.6,9.3-22.3,9.3
		c-4.8,0-9.2-1.1-13.3-3.1c-1.1-0.6-2.2-1.3-3.3-2c-3.7-2.6-7-6.2-9.5-10.7l-1.8-3.1l0,0l0,0h-16.3l0,0l0,0v82.3h1.2v0h63.8
		c-9.3,8.1-14.4,19.2-14.4,31.6c0,24.4,19.8,44.2,44.2,44.2c24.4,0,44.2-19.8,44.2-44.2c0-12.3-5.2-23.4-14.4-31.6h58.6h8.4h4.3V208
		l0,0V12.8z"/>
	<g>
		<g>
			<g>
				<path class="st1" d="M196,12.3v71.2c8.1-9.3,19.2-14.4,31.6-14.4c24.4,0,44.2,19.8,44.2,44.2s-19.8,44.2-44.2,44.2
					c-12.3,0-23.4-5.2-31.6-14.4v90.2h-12.6V126h16.3l1.8,3.1c5.9,10.2,15.2,15.8,26.1,15.8c17.4,0,31.6-14.2,31.6-31.6
					S245,81.8,227.6,81.8c-10.9,0-20.2,5.6-26.1,15.8l-1.8,3.1h-16.3V12.3"/>
			</g>
		</g>
	</g>
	<g>
		<rect x="0.3" y="12.3" class="st1" width="195.7" height="12.6"/>
		<path class="st1" d="M131.1,195.6c9.3-8.1,14.4-19.5,14.4-31.8c0-24.4-19.8-44.2-44.2-44.2s-44.2,19.8-44.2,44.2
			c0,12.3,5.2,23.4,14.4,31.6H13V21.5H0.3V208h88.4v-16.3l-3.1-1.8c-10.2-5.9-15.8-15.2-15.8-26.1c0-17.4,14.2-31.6,31.6-31.6
			s31.6,14.2,31.6,31.6c0,10.9-5.6,20.4-15.8,26.3L114,192v16.3h107.3v-12.6H131.1z"/>
	</g>
	<g>
		<path class="st1" d="M151.8,258.8c10.9,0,20.2,5.6,26.1,15.8l1.8,3.1H196V170.4h-12.6v90.2c-8.1-9.3-19.2-14.4-31.6-14.4
			c-24.4,0-44.2,19.8-44.2,44.2s19.8,44.2,44.2,44.2c12.3,0,23.4-5.2,31.6-14.4v58.6H3.7v12.6H196V303h-16.3l-1.8,3.1
			c-5.9,10.2-15.2,15.8-26.1,15.8c-17.4,0-31.6-14.2-31.6-31.6S134.4,258.8,151.8,258.8z"/>
		<rect x="0.3" y="195.7" class="st1" width="12.6" height="195.7"/>
	</g>
	<g>
		<path class="st1" d="M233.9,239.8c0,24.4,19.8,44.2,44.2,44.2s44.2-19.8,44.2-44.2c0-12.3-5.2-23.4-14.4-31.6h58.6V388h12.6V195.7
			h-88.4v16.3l3.1,1.8c10.2,5.9,15.8,15.2,15.8,26.1c0,17.4-14.2,31.6-31.6,31.6s-31.6-14.2-31.6-31.6c0-10.9,5.6-20.2,15.8-26.1
			l3.1-1.8v-16.3H158.1v12.6h90.2C239,216.4,233.9,227.5,233.9,239.8z"/>
		<rect x="183.4" y="378.7" class="st1" width="195.7" height="12.6"/>
	</g>
	<g>
		<rect x="183.4" y="-0.2" class="st1" width="207.2" height="13"/>
		<polygon class="st1" points="377.6,6.3 377.6,195.8 371.4,195.8 371.4,208.8 390.6,208.8 390.6,6.3 		"/>
	</g>
</g>
</svg>
